<svg xmlns="http://www.w3.org/2000/svg" viewBox="0 0 130.038 81.058"><g transform="translate(499.015 1178.979)"><g transform="translate(-4333.503 -6474.656)"><path d="M466.683,310.246c-8.777-6.581-11.514-14.068-21.186-19.785,6.8-1.592,17.478-2.79,27.106,4.252s4.748,23.531-5.92,15.533Z" transform="translate(3485.729 5064.349)" fill="#7af2ca" fill-rule="evenodd"/><path d="M119.052,176.432s.068-8.52,0-10.411c0-21.226,16.851-42.092,37.827-47.847-15,5.36-17.3,28.344-16.826,46.516A165.418,165.418,0,0,0,119.052,176.432Z" transform="translate(3716.452 5185.236)" fill="#9ef6d9" fill-rule="evenodd"/><path d="M270.369,152.078c-23.158-13.327-58.005-3.572-80.462,6.557-.693-20.82,2.68-41.832,16.708-46.532,5.64-1.89,16.85-1.788,26.054-1.7,12.584.119,17.034,5.529,24.36,14.707,8.07,10.109,10.549,19.746,13.34,26.969Z" transform="translate(3666.597 5191.292)" fill="#4bd9a9" fill-rule="evenodd"/><path d="M273.318,253.969s-14.689-11.716-21.132-15.556c-27.426-16.344-72.157.82-88.58,10.5,10.658,14.179,14.484,26.775,36.189,19.34C221.807,260.718,252.186,238.414,273.318,253.969Z" transform="translate(3685.015 5105.093)" fill="#d8fff2" fill-rule="evenodd"/></g><g transform="translate(-4333.503 -6479.656)"><path d="M466.683,310.246c-8.777-6.581-11.514-14.068-21.186-19.785,6.8-1.592,17.478-2.79,27.106,4.252s4.748,23.531-5.92,15.533Z" transform="translate(3485.729 5064.349)" fill="none" stroke="#000" stroke-width="2" fill-rule="evenodd"/><path d="M119.052,176.432s.068-8.52,0-10.411c0-21.226,16.851-42.092,37.827-47.847-15,5.36-17.3,28.344-16.826,46.516A165.418,165.418,0,0,0,119.052,176.432Z" transform="translate(3716.452 5185.236)" fill="none" stroke="#000" stroke-width="2" fill-rule="evenodd"/><path d="M270.369,152.078c-23.158-13.327-58.005-3.572-80.462,6.557-.693-20.82,2.68-41.832,16.708-46.532,5.64-1.89,16.85-1.788,26.054-1.7,12.584.119,17.034,5.529,24.36,14.707,8.07,10.109,10.549,19.746,13.34,26.969Z" transform="translate(3666.597 5191.292)" fill="none" stroke="#000" stroke-width="2" fill-rule="evenodd"/><path d="M273.318,253.969s-14.689-11.716-21.132-15.556c-27.426-16.344-72.157.82-88.58,10.5,10.658,14.179,14.484,26.775,36.189,19.34C221.807,260.718,252.186,238.414,273.318,253.969Z" transform="translate(3685.015 5105.093)" fill="none" stroke="#000" stroke-width="2" fill-rule="evenodd"/></g></g></svg>