<svg xmlns="http://www.w3.org/2000/svg" width="66.133" height="41.029" viewBox="0 0 66.133 41.029"><g transform="translate(1.015 0.99)"><g transform="translate(0 2.5)"><path d="M456.091,299.744c-4.389-3.29-5.757-7.034-10.593-9.893,3.4-.8,8.739-1.395,13.553,2.126S461.425,303.743,456.091,299.744Z" transform="translate(-397.636 -263.275)" fill="#7af2ca" fill-rule="evenodd"/><path d="M119.052,147.3s.034-4.26,0-5.205c0-10.613,8.426-21.046,18.913-23.923-7.5,2.68-8.65,14.172-8.413,23.258A82.709,82.709,0,0,0,119.052,147.3Z" transform="translate(-119.052 -117.298)" fill="#9ef6d9" fill-rule="evenodd"/><path d="M230.1,131.221c-11.579-6.663-29-1.786-40.231,3.278-.347-10.41,1.34-20.916,8.354-23.266,2.82-.945,8.425-.894,13.027-.85,6.292.06,8.517,2.765,12.18,7.353,4.035,5.054,5.275,9.873,6.67,13.484Z" transform="translate(-179.364 -110.364)" fill="#4bd9a9" fill-rule="evenodd"/><path d="M218.462,242.807s-7.344-5.858-10.566-7.778c-13.713-8.172-36.079.41-44.29,5.252,5.329,7.09,7.242,13.387,18.095,9.67C192.707,246.181,207.9,235.029,218.462,242.807Z" transform="translate(-157.047 -214.104)" fill="#d8fff2" fill-rule="evenodd"/></g><path d="M456.091,299.744c-4.389-3.29-5.757-7.034-10.593-9.893,3.4-.8,8.739-1.395,13.553,2.126S461.425,303.743,456.091,299.744Z" transform="translate(-397.636 -263.275)" fill="none" stroke="#000" stroke-width="2" fill-rule="evenodd"/><path d="M119.052,147.3s.034-4.26,0-5.205c0-10.613,8.426-21.046,18.913-23.923-7.5,2.68-8.65,14.172-8.413,23.258A82.709,82.709,0,0,0,119.052,147.3Z" transform="translate(-119.052 -117.298)" fill="none" stroke="#000" stroke-width="2" fill-rule="evenodd"/><path d="M230.1,131.221c-11.579-6.663-29-1.786-40.231,3.278-.347-10.41,1.34-20.916,8.354-23.266,2.82-.945,8.425-.894,13.027-.85,6.292.06,8.517,2.765,12.18,7.353,4.035,5.054,5.275,9.873,6.67,13.484Z" transform="translate(-179.364 -110.364)" fill="none" stroke="#000" stroke-width="2" fill-rule="evenodd"/><path d="M218.462,242.807s-7.344-5.858-10.566-7.778c-13.713-8.172-36.079.41-44.29,5.252,5.329,7.09,7.242,13.387,18.095,9.67C192.707,246.181,207.9,235.029,218.462,242.807Z" transform="translate(-157.047 -214.104)" fill="none" stroke="#000" stroke-width="2" fill-rule="evenodd"/></g></svg>