<svg xmlns="http://www.w3.org/2000/svg" viewBox="0 0 65.999 35.995">
  <title>bookmarks.</title>
  <path d="M13.477 27.112c0-10.093-.127-19.248 7.118-22.276C9.21 7.864.995 16.436.995 27.068v6.056s4.657-2.286 6.21-3.028l6.2-2.953z" fill="#9ef6d9"/>
  <path d="M63.358 30.706c-1.845-1.348-8.577-2.107-12.472-2.026 5.175 2.018 8.515 6.364 10.171 7.057S65 35.718 65 33.695c.051-1.1-.924-2.141-1.642-2.989z" fill="#7af2ca"/>
  <path d="M63.358 30.706a63.817 63.817 0 00-10.694-6.55 37.3 37.3 0 00-14.489-3.028 55.569 55.569 0 00-24.7 5.984l-.065.031c-.559.266-4.754 2.266-6.2 2.953 4.139 5.563 8.179 5.9 12.319 5.9 6.214 0 11.457-7.279 31.357-7.315 3.895-.086 10.627.677 12.472 2.025z" fill="#d8fff2"/>
  <path d="M34.322 4.008c-5.175 0-10.622-.182-13.727.828-7.245 3.028-7.118 12.183-7.118 22.276a55.569 55.569 0 0124.7-5.984 37.3 37.3 0 0114.489 3.028c-2.072-5.047-6.959-20.148-18.344-20.148z" fill="#4bd9a9"/>
  <g fill="none" stroke="#000" stroke-width="2">
    <path d="M63.358 27.706c-1.845-1.348-8.577-2.107-12.472-2.026 5.175 2.018 8.515 6.364 10.171 7.057S65 32.718 65 30.695c.051-1.1-.924-2.141-1.642-2.989z"/>
    <path d="M63.358 27.706a63.817 63.817 0 00-10.694-6.55 37.3 37.3 0 00-14.489-3.028 55.569 55.569 0 00-24.7 5.984l-.065.031c-.559.266-4.754 2.266-6.2 2.953 4.139 5.563 8.179 5.9 12.319 5.9 6.214 0 11.457-7.279 31.357-7.315 3.895-.086 10.627.677 12.472 2.025z"/>
    <path d="M34.322 1.008c-5.175 0-10.622-.182-13.727.828-7.245 3.028-7.118 12.183-7.118 22.276a55.569 55.569 0 0124.7-5.984 37.3 37.3 0 0114.489 3.028c-2.072-5.047-6.959-20.148-18.344-20.148z"/>
    <path d="M13.477 24.112c0-10.093-.127-19.248 7.118-22.276C9.21 4.864.995 13.436.995 24.068v6.056s4.657-2.286 6.21-3.028l6.2-2.953z"/>
  </g>
</svg>