<?xml version="1.0" standalone="no"?>
<!DOCTYPE svg PUBLIC "-//W3C//DTD SVG 20010904//EN"
 "http://www.w3.org/TR/2001/REC-SVG-20010904/DTD/svg10.dtd">
<svg version="1.0" xmlns="http://www.w3.org/2000/svg"
 width="700.000000pt" height="700.000000pt" viewBox="0 0 700.000000 700.000000"
 preserveAspectRatio="xMidYMid meet">
<metadata>
Created by potrace 1.11, written by Peter Selinger 2001-2013
</metadata>
<g transform="translate(0.000000,700.000000) scale(0.100000,-0.100000)"
fill="#000000" stroke="none">
<path d="M2738 5465 c-2 -1 -59 -6 -128 -9 -69 -4 -138 -9 -155 -11 -16 -2
-49 -7 -73 -9 -126 -15 -238 -42 -384 -92 -90 -31 -181 -64 -203 -74 -22 -10
-71 -32 -109 -49 -110 -49 -301 -160 -442 -256 -163 -110 -461 -382 -583 -533
-65 -79 -190 -251 -219 -302 -14 -25 -29 -47 -33 -50 -7 -5 -118 -224 -152
-300 -65 -143 -140 -379 -161 -500 -2 -14 -7 -41 -10 -60 -13 -78 -16 -98 -22
-175 -8 -103 -11 -761 -4 -798 l5 -27 65 43 c131 86 297 187 307 187 6 0 16 7
23 15 10 12 302 185 313 185 2 0 25 -30 52 -67 27 -38 52 -70 55 -73 3 -3 34
-48 69 -100 329 -484 512 -679 737 -785 144 -68 275 -94 449 -90 87 2 214 14
225 20 3 2 26 6 50 10 141 20 558 168 833 294 37 17 70 31 72 31 3 0 33 13 67
29 35 16 169 77 298 136 129 59 253 115 275 125 90 42 447 190 459 190 6 0 16
4 22 9 5 4 23 13 39 19 17 6 81 29 144 51 128 46 452 140 531 155 14 2 42 7
62 11 58 11 79 1 185 -83 137 -110 275 -247 438 -437 173 -202 463 -468 565
-519 212 -106 391 -35 466 184 30 88 25 252 -10 355 -49 143 -125 245 -277
370 -21 18 -200 163 -252 205 -10 8 -27 22 -37 30 -9 8 -32 26 -50 40 -36 27
-339 264 -355 278 -6 5 -71 51 -145 103 -74 51 -136 97 -138 101 -2 5 -8 8
-14 8 -6 0 -25 10 -42 23 -17 12 -44 29 -59 37 -55 27 -82 73 -142 236 -198
538 -356 834 -632 1183 -246 312 -451 509 -623 600 -83 44 -217 88 -337 111
-97 18 -155 21 -560 24 -248 2 -453 3 -455 1z m-1108 -425 c-86 -109 -189
-293 -254 -452 -63 -158 -144 -482 -171 -688 -3 -25 -8 -56 -10 -70 -2 -14 -6
-59 -10 -100 -4 -41 -8 -91 -11 -110 -6 -53 -15 -317 -16 -487 l-1 -152 -101
-52 c-202 -104 -642 -354 -782 -444 -47 -30 -89 -55 -94 -55 -12 0 -12 7 -12
310 1 227 6 353 17 404 2 12 7 37 10 56 48 328 233 749 461 1048 24 31 47 62
51 67 77 103 284 313 417 423 88 73 296 219 356 250 14 7 59 32 100 56 41 25
77 43 79 41 2 -2 -11 -22 -29 -45z m2745 -1490 c44 -6 100 -13 125 -16 25 -3
86 -14 135 -24 50 -10 101 -21 115 -23 86 -16 305 -87 400 -129 228 -102 386
-197 605 -363 310 -235 365 -278 365 -283 0 -2 -10 -1 -22 2 -139 40 -441 60
-648 42 -143 -12 -183 -18 -340 -53 -98 -21 -178 -42 -430 -115 -39 -11 -390
-145 -485 -185 -73 -31 -558 -246 -600 -266 -16 -8 -46 -22 -65 -30 -19 -9
-66 -30 -105 -47 -161 -74 -406 -179 -485 -210 -47 -18 -98 -38 -115 -45 -54
-23 -277 -95 -354 -115 -143 -36 -218 -45 -376 -44 -352 4 -565 145 -888 589
-125 172 -315 443 -319 456 -7 19 32 42 271 160 304 149 582 262 943 383 151
51 448 140 502 150 11 3 53 12 91 20 39 9 81 19 95 22 14 3 45 10 70 15 25 6
54 13 65 15 34 8 297 52 350 60 28 3 57 7 65 9 15 3 89 12 160 20 19 2 80 7
135 11 55 3 102 8 105 10 8 8 554 -6 635 -16z"/>
</g>
</svg>
