<?xml version="1.0" standalone="no"?>
<!DOCTYPE svg PUBLIC "-//W3C//DTD SVG 20010904//EN"
 "http://www.w3.org/TR/2001/REC-SVG-20010904/DTD/svg10.dtd">
<svg version="1.0" xmlns="http://www.w3.org/2000/svg"
 width="700.000000pt" height="700.000000pt" viewBox="0 0 700.000000 700.000000"
 preserveAspectRatio="xMidYMid meet">
<metadata>
Created by potrace 1.11, written by Peter Selinger 2001-2013
</metadata>
<g transform="translate(0.000000,700.000000) scale(0.100000,-0.100000)"
fill="#000000" stroke="none">
<path d="M2718 5465 c-2 -2 -52 -6 -113 -9 -257 -15 -424 -48 -656 -129 -366
-129 -693 -325 -989 -592 -75 -67 -263 -258 -303 -307 -136 -167 -251 -345
-341 -528 -147 -297 -232 -586 -252 -856 -8 -118 -10 -797 -1 -810 4 -8 43 12
116 60 59 39 136 87 170 106 34 19 94 56 134 81 40 25 121 74 180 108 107 61
109 62 123 42 8 -11 20 -26 27 -33 7 -7 46 -60 87 -118 161 -229 281 -398 298
-416 9 -11 33 -40 52 -64 190 -245 411 -397 645 -445 166 -33 405 -21 605 30
86 22 377 119 435 145 11 5 74 31 140 58 163 68 335 143 550 242 369 169 689
307 885 380 25 9 52 20 60 23 51 20 448 141 500 152 153 34 171 36 204 25 91
-30 321 -241 556 -510 133 -152 372 -381 485 -465 22 -17 42 -33 45 -36 3 -4
32 -19 65 -34 86 -39 192 -45 263 -15 80 34 147 117 181 222 17 51 20 180 6
258 -36 198 -130 325 -395 536 -68 54 -131 106 -140 114 -9 8 -31 26 -50 40
-19 14 -48 37 -64 51 -17 14 -93 73 -168 132 -75 58 -145 113 -155 121 -32 27
-315 226 -322 227 -3 0 -37 21 -76 47 -79 54 -100 87 -169 272 -197 526 -366
838 -638 1176 -149 185 -148 184 -288 325 -204 205 -321 278 -535 338 -134 37
-149 40 -250 46 -85 6 -902 14 -907 10z m-1068 -390 c0 -2 -29 -47 -65 -99
-119 -174 -200 -344 -261 -546 -32 -104 -84 -322 -99 -410 -3 -19 -8 -42 -10
-50 -2 -8 -6 -37 -10 -65 -3 -27 -8 -63 -10 -80 -2 -16 -7 -61 -11 -100 -3
-38 -8 -85 -10 -103 -5 -53 -13 -296 -16 -469 -1 -90 -4 -166 -7 -170 -3 -5
-33 -22 -66 -39 -117 -61 -222 -118 -335 -182 -63 -36 -131 -74 -150 -85 -111
-62 -248 -143 -325 -191 -49 -31 -93 -56 -98 -56 -10 0 -4 669 6 710 4 13 9
42 12 65 39 275 195 652 388 940 156 231 405 494 619 652 181 134 237 171 363
238 28 15 54 31 60 36 10 10 25 12 25 4z m2645 -1520 c371 -23 774 -138 1080
-309 72 -40 256 -156 265 -166 3 -4 28 -22 55 -40 28 -19 55 -39 61 -45 7 -5
89 -68 183 -140 157 -119 199 -158 154 -140 -33 12 -187 34 -293 41 -346 21
-560 -8 -1013 -137 -250 -72 -562 -199 -1307 -534 -69 -31 -140 -63 -158 -71
-78 -36 -408 -176 -424 -179 -9 -2 -29 -10 -45 -18 -44 -23 -376 -129 -439
-141 -30 -6 -107 -19 -134 -23 -40 -6 -277 -5 -307 1 -16 3 -44 8 -63 11 -95
15 -210 67 -308 139 -140 104 -263 247 -509 591 -190 266 -206 292 -200 307 5
15 37 33 227 128 214 108 390 186 635 280 237 91 734 251 855 275 8 2 47 11
85 20 39 9 79 18 90 21 20 4 126 27 135 29 3 1 25 5 50 9 25 5 54 10 65 12 48
10 96 18 170 29 22 3 47 7 55 10 8 2 42 7 75 10 33 3 69 8 80 10 27 6 111 14
225 21 52 3 97 8 100 11 5 5 418 -4 555 -12z"/>
</g>
</svg>
