<?xml version="1.0" standalone="no"?>
<!DOCTYPE svg PUBLIC "-//W3C//DTD SVG 20010904//EN"
 "http://www.w3.org/TR/2001/REC-SVG-20010904/DTD/svg10.dtd">
<svg version="1.0" xmlns="http://www.w3.org/2000/svg"
 width="700.000000pt" height="700.000000pt" viewBox="0 0 700.000000 700.000000"
 preserveAspectRatio="xMidYMid meet">
<metadata>
Created by potrace 1.11, written by Peter Selinger 2001-2013
</metadata>
<g transform="translate(0.000000,700.000000) scale(0.100000,-0.100000)"
fill="#000000" stroke="none">
<path d="M2798 5245 c-2 -1 -52 -6 -113 -10 -170 -10 -227 -17 -350 -41 -122
-24 -384 -106 -540 -169 -136 -54 -434 -202 -466 -231 -8 -8 -19 -14 -23 -14
-17 0 -271 -184 -368 -267 -79 -67 -279 -275 -340 -353 -127 -163 -261 -388
-327 -548 -65 -160 -122 -363 -141 -508 -6 -43 -13 -95 -17 -114 -8 -50 -11
-1000 -2 -1000 7 0 564 270 653 317 l49 26 46 -54 c118 -141 284 -281 422
-357 226 -124 458 -173 799 -168 185 3 253 13 370 53 25 8 50 16 55 17 12 3
19 6 155 61 58 24 173 73 255 110 447 199 771 308 1145 385 85 17 167 33 182
36 16 2 43 6 61 9 47 7 131 19 205 29 20 3 66 8 102 12 36 3 76 8 90 9 82 10
334 23 510 25 l125 2 90 -46 c180 -92 234 -126 415 -267 58 -46 107 -85 110
-88 42 -49 320 -276 368 -300 149 -76 342 -61 460 36 121 99 152 266 77 416
-74 150 -161 232 -465 438 -220 150 -377 243 -657 390 -124 66 -127 68 -145
115 -10 27 -23 58 -28 69 -5 11 -35 83 -66 160 -241 599 -482 1016 -749 1295
-271 283 -518 431 -835 501 -102 23 -121 24 -607 25 -276 1 -503 1 -505 -1z
m-1124 -522 c-135 -197 -237 -581 -269 -1013 -6 -82 -16 -469 -18 -700 l-2
-174 -25 -13 c-37 -20 -442 -213 -445 -213 -2 0 -136 -65 -298 -145 -163 -80
-298 -145 -302 -145 -9 0 -4 596 5 655 4 28 10 73 14 102 3 29 15 90 25 135
144 617 582 1149 1224 1488 61 33 113 60 114 60 1 0 -9 -17 -23 -37z m2711
-1463 c55 -6 111 -13 124 -15 13 -2 45 -7 70 -10 155 -21 431 -88 617 -151
205 -68 487 -197 636 -291 21 -12 40 -23 42 -23 3 0 42 -22 88 -50 91 -55 87
-60 -33 -41 -191 32 -905 35 -1179 6 -19 -2 -66 -6 -105 -10 -110 -10 -110
-10 -270 -31 -227 -30 -589 -108 -790 -171 -141 -44 -350 -118 -420 -148 -16
-7 -102 -43 -190 -81 -88 -37 -187 -79 -220 -94 -342 -156 -495 -198 -705
-194 -377 6 -603 76 -825 253 -66 53 -89 74 -179 169 l-40 41 188 91 c103 49
189 90 190 90 2 0 100 47 217 104 213 103 448 201 649 271 374 130 854 235
1230 271 36 3 76 8 90 10 14 2 84 7 155 10 72 4 131 8 133 9 9 8 438 -5 527
-15z"/>
</g>
</svg>
